<svg id="ball" xmlns="http://www.w3.org/2000/svg" xmlns:xlink="http://www.w3.org/1999/xlink" viewBox="0 0 39.62 38.68"><defs><style>.cls-1{fill:url(#Degradado_sin_nombre_53);}</style><radialGradient id="Degradado_sin_nombre_53" cx="25" cy="25" r="19.58" gradientUnits="userSpaceOnUse"><stop offset="0" stop-color="#fff"/><stop offset="1" stop-color="#fb8939" stop-opacity="0.98"/></radialGradient></defs><path class="cls-1" d="M44.81,26.54c-.07.62-.13,1.23-.21,1.84a18.8,18.8,0,0,1-2.73,7.5,20,20,0,0,1-6.24,6.34,18.86,18.86,0,0,1-4.28,2,1,1,0,0,1-1.42-1c0-1.73,0-3.46,0-5.18a5.58,5.58,0,0,0-.69-3,8.16,8.16,0,0,0-.58-.77c.78-.14,1.55-.25,2.31-.44A8.34,8.34,0,0,0,36,30.64a9.48,9.48,0,0,0,1.5-4.34,11,11,0,0,0-.08-3.62,7,7,0,0,0-1.58-3.22.63.63,0,0,1-.14-.71A6.8,6.8,0,0,0,35.44,14a.41.41,0,0,0-.29-.19,3.4,3.4,0,0,0-2,.38c-1,.48-2,1-3,1.51a1,1,0,0,1-.57.1,18.66,18.66,0,0,0-9.3,0,.91.91,0,0,1-.6-.12,14.28,14.28,0,0,0-4-1.82l-.07,0c-.91-.19-1.07-.08-1.33.8a6.72,6.72,0,0,0,0,4.25.48.48,0,0,1-.09.4,8.15,8.15,0,0,0-1.81,6.43,11.16,11.16,0,0,0,1.1,4.12,7.07,7.07,0,0,0,4.22,3.53,36.36,36.36,0,0,0,3.56.92c0-.06,0,0,0,0a4.22,4.22,0,0,0-1.11,2.29c0,.11-.09.27-.18.3a4.44,4.44,0,0,1-4.12,0,4.15,4.15,0,0,1-1.43-1.54,4.24,4.24,0,0,0-2.46-2,4,4,0,0,0-1.25-.06c-.29,0-.38.23-.19.47a2.59,2.59,0,0,0,.59.6,5.36,5.36,0,0,1,2.1,2.6,5,5,0,0,0,1,1.73,4.53,4.53,0,0,0,3,1.1c.92,0,1.85,0,2.81,0a.63.63,0,0,1,0,.18c0,1,0,2.09,0,3.13s-.61,1.45-1.58,1.11A19.52,19.52,0,0,1,7.34,34.48a19.19,19.19,0,0,1-2-11.24,19.16,19.16,0,0,1,4.8-10.85A19,19,0,0,1,20.76,6.13a19.36,19.36,0,0,1,16.71,4,19.27,19.27,0,0,1,7,11.62c.14.69.19,1.4.29,2.1,0,.14,0,.28.07.41Z" transform="translate(-5.19 -5.66)"/></svg>