<svg id="Capa_2" data-name="Capa 2" xmlns="http://www.w3.org/2000/svg" viewBox="0 0 28.29 44.29"><defs><style>.cls-1{fill:#fffdf9;stroke:#fb8939;stroke-miterlimit:10;stroke-width:0.5px;}</style></defs><path class="cls-1" d="M23.59,35.41c-.7,0-1.54-.45-2.28-.56a10.46,10.46,0,0,0-2.5-.11c-3.39.24-7.41,2.35-9,5.47A5.08,5.08,0,0,0,9.39,44a5.68,5.68,0,0,0,4,3.55,11.21,11.21,0,0,0,13.12-6.66c.51-1.43.23-3.15.23-4.65V17.87c.5.28,1,.46,1.56.73a16,16,0,0,1,3.39,2.45,9.43,9.43,0,0,1,2.48,9.78,15.94,15.94,0,0,1-1.4,3c-.21.37-.43.86-.16,1.2a.72.72,0,0,0,.88.13,1.82,1.82,0,0,0,.68-.67,15.58,15.58,0,0,0,2.65-11.07c-.61-4.45-3.42-7-6.3-10.2a17,17,0,0,1-3.85-7.56,2.9,2.9,0,0,0-.31-.85,1.52,1.52,0,0,0-2-.5c-1.08.62-.93,2.08-.88,3.13.09,1.81.15,3.63.19,5.44.09,4,0,7.92,0,11.88,0,3.37.07,6.77-.1,10.13A2.6,2.6,0,0,1,23.59,35.41Z" transform="translate(-8.95 -3.84)"/></svg>